<?xml version="1.0" encoding="UTF-8"?>
<svg xmlns="http://www.w3.org/2000/svg" xmlns:xlink="http://www.w3.org/1999/xlink"
     width="1174.0" height="184.9" viewBox="0 0 1174.0 184.9">
<defs>
</defs>
<rect x="100.15" y="0.15" width="60.0" height="40" fill="#729fdc" shape-rendering="geometricPrecision" />
<rect x="100.15" y="0.0" width="60.0" height="40.15" fill="none" stroke="#000" stroke-width="0.15" />
<text x="130.15" y="31.15" font-size="24.0" textLength="12.0" lengthAdjust="spacing" text-anchor="middle" font-family="Noto Sans" fill="black">0</text>
<rect x="160.15" y="0.15" width="61.00000000000001" height="40" fill="#729fdc" shape-rendering="geometricPrecision" />
<rect x="160.15" y="0.0" width="61.00000000000001" height="40.15" fill="none" stroke="#000" stroke-width="0.15" />
<text x="190.65" y="31.15" font-size="24.0" textLength="12.0" lengthAdjust="spacing" text-anchor="middle" font-family="Noto Sans" fill="black">1</text>
<rect x="221.15" y="0.15" width="60.0" height="40" fill="#729fdc" shape-rendering="geometricPrecision" />
<rect x="221.15" y="0.0" width="60.0" height="40.15" fill="none" stroke="#000" stroke-width="0.15" />
<text x="251.15" y="31.15" font-size="24.0" textLength="12.0" lengthAdjust="spacing" text-anchor="middle" font-family="Noto Sans" fill="black">2</text>
<rect x="281.15" y="0.15" width="68.0" height="40" fill="#e78f89" shape-rendering="geometricPrecision" />
<rect x="281.15" y="0.0" width="68.0" height="40.15" fill="none" stroke="#000" stroke-width="0.15" />
<text x="315.15" y="31.15" font-size="24.0" textLength="12.0" lengthAdjust="spacing" text-anchor="middle" font-family="Noto Sans" fill="black">0</text>
<rect x="349.15" y="0.15" width="0.0" height="40" fill="#a0dab8" shape-rendering="geometricPrecision" />
<rect x="349.15" y="0.0" width="0.0" height="40.15" fill="none" stroke="#000" stroke-width="0.15" />
<text x="349.15" y="31.15" font-size="24.0" textLength="12.0" lengthAdjust="spacing" text-anchor="middle" font-family="Noto Sans" fill="black">0</text>
<rect x="349.15" y="0.15" width="59.99999999999997" height="40" fill="#729fdc" shape-rendering="geometricPrecision" />
<rect x="349.15" y="0.0" width="59.99999999999997" height="40.15" fill="none" stroke="#000" stroke-width="0.15" />
<text x="379.15" y="31.15" font-size="24.0" textLength="12.0" lengthAdjust="spacing" text-anchor="middle" font-family="Noto Sans" fill="black">3</text>
<rect x="409.15" y="0.15" width="68.0" height="40" fill="#e78f89" shape-rendering="geometricPrecision" />
<rect x="409.15" y="0.0" width="68.0" height="40.15" fill="none" stroke="#000" stroke-width="0.15" />
<text x="443.15" y="31.15" font-size="24.0" textLength="12.0" lengthAdjust="spacing" text-anchor="middle" font-family="Noto Sans" fill="black">1</text>
<rect x="477.15" y="0.15" width="0.0" height="40" fill="#a0dab8" shape-rendering="geometricPrecision" />
<rect x="477.15" y="0.0" width="0.0" height="40.15" fill="none" stroke="#000" stroke-width="0.15" />
<text x="477.15" y="31.15" font-size="24.0" textLength="12.0" lengthAdjust="spacing" text-anchor="middle" font-family="Noto Sans" fill="black">1</text>
<rect x="477.15" y="0.15" width="60.0" height="40" fill="#729fdc" shape-rendering="geometricPrecision" />
<rect x="477.15" y="0.0" width="60.0" height="40.15" fill="none" stroke="#000" stroke-width="0.15" />
<text x="507.15" y="31.15" font-size="24.0" textLength="12.0" lengthAdjust="spacing" text-anchor="middle" font-family="Noto Sans" fill="black">4</text>
<rect x="537.15" y="0.15" width="61.0" height="40" fill="#729fdc" shape-rendering="geometricPrecision" />
<rect x="537.15" y="0.0" width="61.0" height="40.15" fill="none" stroke="#000" stroke-width="0.15" />
<text x="567.65" y="31.15" font-size="24.0" textLength="12.0" lengthAdjust="spacing" text-anchor="middle" font-family="Noto Sans" fill="black">5</text>
<rect x="598.15" y="0.15" width="67.0" height="40" fill="#e78f89" shape-rendering="geometricPrecision" />
<rect x="598.15" y="0.0" width="67.0" height="40.15" fill="none" stroke="#000" stroke-width="0.15" />
<text x="631.65" y="31.15" font-size="24.0" textLength="12.0" lengthAdjust="spacing" text-anchor="middle" font-family="Noto Sans" fill="black">2</text>
<rect x="665.15" y="0.15" width="0.0" height="40" fill="#a0dab8" shape-rendering="geometricPrecision" />
<rect x="665.15" y="0.0" width="0.0" height="40.15" fill="none" stroke="#000" stroke-width="0.15" />
<text x="665.15" y="31.15" font-size="24.0" textLength="12.0" lengthAdjust="spacing" text-anchor="middle" font-family="Noto Sans" fill="black">2</text>
<rect x="665.15" y="0.15" width="68.0" height="40" fill="#e78f89" shape-rendering="geometricPrecision" />
<rect x="665.15" y="0.0" width="68.0" height="40.15" fill="none" stroke="#000" stroke-width="0.15" />
<text x="699.15" y="31.15" font-size="24.0" textLength="12.0" lengthAdjust="spacing" text-anchor="middle" font-family="Noto Sans" fill="black">3</text>
<rect x="733.15" y="0.15" width="0.0" height="40" fill="#a0dab8" shape-rendering="geometricPrecision" />
<rect x="733.15" y="0.0" width="0.0" height="40.15" fill="none" stroke="#000" stroke-width="0.15" />
<text x="733.15" y="31.15" font-size="24.0" textLength="12.0" lengthAdjust="spacing" text-anchor="middle" font-family="Noto Sans" fill="black">3</text>
<rect x="733.15" y="0.15" width="60.0" height="40" fill="#729fdc" shape-rendering="geometricPrecision" />
<rect x="733.15" y="0.0" width="60.0" height="40.15" fill="none" stroke="#000" stroke-width="0.15" />
<text x="763.15" y="31.15" font-size="24.0" textLength="12.0" lengthAdjust="spacing" text-anchor="middle" font-family="Noto Sans" fill="black">6</text>
<rect x="793.15" y="0.15" width="68.0" height="40" fill="#e78f89" shape-rendering="geometricPrecision" />
<rect x="793.15" y="0.0" width="68.0" height="40.15" fill="none" stroke="#000" stroke-width="0.15" />
<text x="827.15" y="31.15" font-size="24.0" textLength="12.0" lengthAdjust="spacing" text-anchor="middle" font-family="Noto Sans" fill="black">4</text>
<rect x="861.15" y="0.15" width="0.0" height="40" fill="#a0dab8" shape-rendering="geometricPrecision" />
<rect x="861.15" y="0.0" width="0.0" height="40.15" fill="none" stroke="#000" stroke-width="0.15" />
<text x="861.15" y="31.15" font-size="24.0" textLength="12.0" lengthAdjust="spacing" text-anchor="middle" font-family="Noto Sans" fill="black">4</text>
<rect x="861.15" y="0.15" width="60.0" height="40" fill="#729fdc" shape-rendering="geometricPrecision" />
<rect x="861.15" y="0.0" width="60.0" height="40.15" fill="none" stroke="#000" stroke-width="0.15" />
<text x="891.15" y="31.15" font-size="24.0" textLength="12.0" lengthAdjust="spacing" text-anchor="middle" font-family="Noto Sans" fill="black">7</text>
<rect x="921.15" y="0.15" width="68.0" height="40" fill="#e78f89" shape-rendering="geometricPrecision" />
<rect x="921.15" y="0.0" width="68.0" height="40.15" fill="none" stroke="#000" stroke-width="0.15" />
<text x="955.15" y="31.15" font-size="24.0" textLength="12.0" lengthAdjust="spacing" text-anchor="middle" font-family="Noto Sans" fill="black">5</text>
<rect x="989.15" y="0.15" width="0.0" height="40" fill="#a0dab8" shape-rendering="geometricPrecision" />
<rect x="989.15" y="0.0" width="0.0" height="40.15" fill="none" stroke="#000" stroke-width="0.15" />
<text x="989.15" y="31.15" font-size="24.0" textLength="12.0" lengthAdjust="spacing" text-anchor="middle" font-family="Noto Sans" fill="black">5</text>
<rect x="989.15" y="0.15" width="67.0" height="40" fill="#e78f89" shape-rendering="geometricPrecision" />
<rect x="989.15" y="0.0" width="67.0" height="40.15" fill="none" stroke="#000" stroke-width="0.15" />
<text x="1022.65" y="31.15" font-size="24.0" textLength="12.0" lengthAdjust="spacing" text-anchor="middle" font-family="Noto Sans" fill="black">6</text>
<rect x="1056.15" y="0.15" width="0.0" height="40" fill="#a0dab8" shape-rendering="geometricPrecision" />
<rect x="1056.15" y="0.0" width="0.0" height="40.15" fill="none" stroke="#000" stroke-width="0.15" />
<text x="1056.15" y="31.15" font-size="24.0" textLength="12.0" lengthAdjust="spacing" text-anchor="middle" font-family="Noto Sans" fill="black">6</text>
<rect x="1056.15" y="0.15" width="67.0" height="40" fill="#e78f89" shape-rendering="geometricPrecision" />
<rect x="1056.15" y="0.0" width="67.0" height="40.15" fill="none" stroke="#000" stroke-width="0.15" />
<text x="1089.65" y="31.15" font-size="24.0" textLength="12.0" lengthAdjust="spacing" text-anchor="middle" font-family="Noto Sans" fill="black">7</text>
<rect x="1123.15" y="0.15" width="1.0000000000001137" height="40" fill="#a0dab8" shape-rendering="geometricPrecision" />
<rect x="1123.15" y="0.0" width="1.0000000000001137" height="40.15" fill="none" stroke="#000" stroke-width="0.15" />
<text x="1123.65" y="31.15" font-size="24.0" textLength="12.0" lengthAdjust="spacing" text-anchor="middle" font-family="Noto Sans" fill="black">7</text>
<path d="M100,40.15 L1173.0,40.3" stroke="black" stroke-width="0.15" />
<rect x="161.15" y="40.3" width="59.00000000000001" height="40" fill="#729fdc" shape-rendering="geometricPrecision" />
<rect x="161.15" y="40.15" width="59.00000000000001" height="40.15" fill="none" stroke="#000" stroke-width="0.15" />
<text x="190.65" y="71.3" font-size="24.0" textLength="12.0" lengthAdjust="spacing" text-anchor="middle" font-family="Noto Sans" fill="black">0</text>
<rect x="220.15" y="40.3" width="37.0" height="40" fill="#e78f89" shape-rendering="geometricPrecision" />
<rect x="220.15" y="40.15" width="37.0" height="40.15" fill="none" stroke="#000" stroke-width="0.15" />
<text x="238.65" y="71.3" font-size="24.0" textLength="12.0" lengthAdjust="spacing" text-anchor="middle" font-family="Noto Sans" fill="black">0</text>
<rect x="257.15" y="40.3" width="1.0" height="40" fill="#a0dab8" shape-rendering="geometricPrecision" />
<rect x="257.15" y="40.15" width="1.0" height="40.15" fill="none" stroke="#000" stroke-width="0.15" />
<text x="257.65" y="71.3" font-size="24.0" textLength="12.0" lengthAdjust="spacing" text-anchor="middle" font-family="Noto Sans" fill="black">0</text>
<rect x="258.15" y="40.3" width="59.0" height="40" fill="#729fdc" shape-rendering="geometricPrecision" />
<rect x="258.15" y="40.15" width="59.0" height="40.15" fill="none" stroke="#000" stroke-width="0.15" />
<text x="287.65" y="71.3" font-size="24.0" textLength="12.0" lengthAdjust="spacing" text-anchor="middle" font-family="Noto Sans" fill="black">1</text>
<rect x="317.15" y="40.3" width="37.0" height="40" fill="#e78f89" shape-rendering="geometricPrecision" />
<rect x="317.15" y="40.15" width="37.0" height="40.15" fill="none" stroke="#000" stroke-width="0.15" />
<text x="335.65" y="71.3" font-size="24.0" textLength="12.0" lengthAdjust="spacing" text-anchor="middle" font-family="Noto Sans" fill="black">1</text>
<rect x="354.15" y="40.3" width="1.0" height="40" fill="#a0dab8" shape-rendering="geometricPrecision" />
<rect x="354.15" y="40.15" width="1.0" height="40.15" fill="none" stroke="#000" stroke-width="0.15" />
<text x="354.65" y="71.3" font-size="24.0" textLength="12.0" lengthAdjust="spacing" text-anchor="middle" font-family="Noto Sans" fill="black">1</text>
<rect x="355.15" y="40.3" width="58.99999999999997" height="40" fill="#729fdc" shape-rendering="geometricPrecision" />
<rect x="355.15" y="40.15" width="58.99999999999997" height="40.15" fill="none" stroke="#000" stroke-width="0.15" />
<text x="384.65" y="71.3" font-size="24.0" textLength="12.0" lengthAdjust="spacing" text-anchor="middle" font-family="Noto Sans" fill="black">2</text>
<rect x="414.15" y="40.3" width="37.0" height="40" fill="#e78f89" shape-rendering="geometricPrecision" />
<rect x="414.15" y="40.15" width="37.0" height="40.15" fill="none" stroke="#000" stroke-width="0.15" />
<text x="432.65" y="71.3" font-size="24.0" textLength="12.0" lengthAdjust="spacing" text-anchor="middle" font-family="Noto Sans" fill="black">2</text>
<rect x="451.15" y="40.3" width="2.0" height="40" fill="#a0dab8" shape-rendering="geometricPrecision" />
<rect x="451.15" y="40.15" width="2.0" height="40.15" fill="none" stroke="#000" stroke-width="0.15" />
<text x="452.15" y="71.3" font-size="24.0" textLength="12.0" lengthAdjust="spacing" text-anchor="middle" font-family="Noto Sans" fill="black">2</text>
<rect x="453.15" y="40.3" width="59.0" height="40" fill="#729fdc" shape-rendering="geometricPrecision" />
<rect x="453.15" y="40.15" width="59.0" height="40.15" fill="none" stroke="#000" stroke-width="0.15" />
<text x="482.65" y="71.3" font-size="24.0" textLength="12.0" lengthAdjust="spacing" text-anchor="middle" font-family="Noto Sans" fill="black">3</text>
<rect x="512.15" y="40.3" width="36.0" height="40" fill="#e78f89" shape-rendering="geometricPrecision" />
<rect x="512.15" y="40.15" width="36.0" height="40.15" fill="none" stroke="#000" stroke-width="0.15" />
<text x="530.15" y="71.3" font-size="24.0" textLength="12.0" lengthAdjust="spacing" text-anchor="middle" font-family="Noto Sans" fill="black">3</text>
<rect x="548.15" y="40.3" width="2.0" height="40" fill="#a0dab8" shape-rendering="geometricPrecision" />
<rect x="548.15" y="40.15" width="2.0" height="40.15" fill="none" stroke="#000" stroke-width="0.15" />
<text x="549.15" y="71.3" font-size="24.0" textLength="12.0" lengthAdjust="spacing" text-anchor="middle" font-family="Noto Sans" fill="black">3</text>
<rect x="550.15" y="40.3" width="59.0" height="40" fill="#729fdc" shape-rendering="geometricPrecision" />
<rect x="550.15" y="40.15" width="59.0" height="40.15" fill="none" stroke="#000" stroke-width="0.15" />
<text x="579.65" y="71.3" font-size="24.0" textLength="12.0" lengthAdjust="spacing" text-anchor="middle" font-family="Noto Sans" fill="black">4</text>
<rect x="609.15" y="40.3" width="36.0" height="40" fill="#e78f89" shape-rendering="geometricPrecision" />
<rect x="609.15" y="40.15" width="36.0" height="40.15" fill="none" stroke="#000" stroke-width="0.15" />
<text x="627.15" y="71.3" font-size="24.0" textLength="12.0" lengthAdjust="spacing" text-anchor="middle" font-family="Noto Sans" fill="black">4</text>
<rect x="645.15" y="40.3" width="2.0" height="40" fill="#a0dab8" shape-rendering="geometricPrecision" />
<rect x="645.15" y="40.15" width="2.0" height="40.15" fill="none" stroke="#000" stroke-width="0.15" />
<text x="646.15" y="71.3" font-size="24.0" textLength="12.0" lengthAdjust="spacing" text-anchor="middle" font-family="Noto Sans" fill="black">4</text>
<rect x="647.15" y="40.3" width="59.0" height="40" fill="#729fdc" shape-rendering="geometricPrecision" />
<rect x="647.15" y="40.15" width="59.0" height="40.15" fill="none" stroke="#000" stroke-width="0.15" />
<text x="676.65" y="71.3" font-size="24.0" textLength="12.0" lengthAdjust="spacing" text-anchor="middle" font-family="Noto Sans" fill="black">5</text>
<rect x="706.15" y="40.3" width="37.0" height="40" fill="#e78f89" shape-rendering="geometricPrecision" />
<rect x="706.15" y="40.15" width="37.0" height="40.15" fill="none" stroke="#000" stroke-width="0.15" />
<text x="724.65" y="71.3" font-size="24.0" textLength="12.0" lengthAdjust="spacing" text-anchor="middle" font-family="Noto Sans" fill="black">5</text>
<rect x="743.15" y="40.3" width="1.0" height="40" fill="#a0dab8" shape-rendering="geometricPrecision" />
<rect x="743.15" y="40.15" width="1.0" height="40.15" fill="none" stroke="#000" stroke-width="0.15" />
<text x="743.65" y="71.3" font-size="24.0" textLength="12.0" lengthAdjust="spacing" text-anchor="middle" font-family="Noto Sans" fill="black">5</text>
<rect x="794.15" y="40.3" width="59.0" height="40" fill="#729fdc" shape-rendering="geometricPrecision" />
<rect x="794.15" y="40.15" width="59.0" height="40.15" fill="none" stroke="#000" stroke-width="0.15" />
<text x="823.65" y="71.3" font-size="24.0" textLength="12.0" lengthAdjust="spacing" text-anchor="middle" font-family="Noto Sans" fill="black">6</text>
<rect x="853.15" y="40.3" width="37.0" height="40" fill="#e78f89" shape-rendering="geometricPrecision" />
<rect x="853.15" y="40.15" width="37.0" height="40.15" fill="none" stroke="#000" stroke-width="0.15" />
<text x="871.65" y="71.3" font-size="24.0" textLength="12.0" lengthAdjust="spacing" text-anchor="middle" font-family="Noto Sans" fill="black">6</text>
<rect x="890.15" y="40.3" width="1.0" height="40" fill="#a0dab8" shape-rendering="geometricPrecision" />
<rect x="890.15" y="40.15" width="1.0" height="40.15" fill="none" stroke="#000" stroke-width="0.15" />
<text x="890.65" y="71.3" font-size="24.0" textLength="12.0" lengthAdjust="spacing" text-anchor="middle" font-family="Noto Sans" fill="black">6</text>
<rect x="922.15" y="40.3" width="59.0" height="40" fill="#729fdc" shape-rendering="geometricPrecision" />
<rect x="922.15" y="40.15" width="59.0" height="40.15" fill="none" stroke="#000" stroke-width="0.15" />
<text x="951.65" y="71.3" font-size="24.0" textLength="12.0" lengthAdjust="spacing" text-anchor="middle" font-family="Noto Sans" fill="black">7</text>
<rect x="981.15" y="40.3" width="37.0" height="40" fill="#e78f89" shape-rendering="geometricPrecision" />
<rect x="981.15" y="40.15" width="37.0" height="40.15" fill="none" stroke="#000" stroke-width="0.15" />
<text x="999.65" y="71.3" font-size="24.0" textLength="12.0" lengthAdjust="spacing" text-anchor="middle" font-family="Noto Sans" fill="black">7</text>
<rect x="1018.15" y="40.3" width="1.0" height="40" fill="#a0dab8" shape-rendering="geometricPrecision" />
<rect x="1018.15" y="40.15" width="1.0" height="40.15" fill="none" stroke="#000" stroke-width="0.15" />
<text x="1018.65" y="71.3" font-size="24.0" textLength="12.0" lengthAdjust="spacing" text-anchor="middle" font-family="Noto Sans" fill="black">7</text>
<path d="M100,80.3 L1173.0,80.45" stroke="black" stroke-width="0.15" />
<text x="24" y="37.15" font-size="40" textLength="40" lengthAdjust="spacing" text-anchor="left" font-family="Noto Sans" fill="black">P0</text>
<text x="24" y="77.3" font-size="40" textLength="40" lengthAdjust="spacing" text-anchor="left" font-family="Noto Sans" fill="black">P1</text>
</svg>